{
  "accessors": [
    {
      "bufferView": 2,
      "componentType": 5126,
      "count": 1657,
      "max": [
        18.6130313873291,
        -2.9564049243927,
        18.644062042236328
      ],
      "min": [
        -18.63754653930664,
        -12.932821273803711,
        -18.644062042236328
      ],
      "type": "VEC3"
    },
    {
      "bufferView": 2,
      "byteOffset": 19884,
      "componentType": 5126,
      "count": 1657,
      "max": [
        1.0,
        1.0,
        1.0
      ],
      "min": [
        -1.0,
        -1.0,
        -1.0
      ],
      "type": "VEC3"
    },
    {
      "bufferView": 3,
      "componentType": 5126,
      "count": 1657,
      "max": [
        1.0,
        0.9999405145645142,
        1.0,
        1.0
      ],
      "min": [
        -1.0,
        -1.0,
        -1.0,
        1.0
      ],
      "type": "VEC4"
    },
    {
      "bufferView": 1,
      "componentType": 5126,
      "count": 1657,
      "max": [
        0.9941924214363098,
        0.6626458764076233
      ],
      "min": [
        0.0010753648821264505,
        0.01117849349975586
      ],
      "type": "VEC2"
    },
    {
      "bufferView": 0,
      "componentType": 5125,
      "count": 3675,
      "type": "SCALAR"
    },
    {
      "bufferView": 2,
      "byteOffset": 39768,
      "componentType": 5126,
      "count": 272,
      "max": [
        12.600208282470703,
        4.469137191772461,
        4.469137191772461
      ],
      "min": [
        -12.457347869873047,
        -4.469137191772461,
        -4.469137191772461
      ],
      "type": "VEC3"
    },
    {
      "bufferView": 2,
      "byteOffset": 43032,
      "componentType": 5126,
      "count": 272,
      "max": [
        1.0,
        1.0,
        1.0
      ],
      "min": [
        -1.0,
        -1.0,
        -1.0
      ],
      "type": "VEC3"
    },
    {
      "bufferView": 3,
      "byteOffset": 26512,
      "componentType": 5126,
      "count": 272,
      "max": [
        0.3779697120189667,
        0.9915434718132019,
        0.9915434718132019,
        1.0
      ],
      "min": [
        -1.0,
        -0.9915434718132019,
        -0.9915434718132019,
        1.0
      ],
      "type": "VEC4"
    },
    {
      "bufferView": 1,
      "byteOffset": 13256,
      "componentType": 5126,
      "count": 272,
      "max": [
        0.9893941283226013,
        0.276525616645813
      ],
      "min": [
        0.5780274868011475,
        0.011390209197998047
      ],
      "type": "VEC2"
    },
    {
      "bufferView": 0,
      "byteOffset": 14700,
      "componentType": 5125,
      "count": 1152,
      "type": "SCALAR"
    },
    {
      "bufferView": 2,
      "byteOffset": 46296,
      "componentType": 5126,
      "count": 4110,
      "max": [
        1.214377999305725,
        1.2143781185150146,
        2.1987149715423584
      ],
      "min": [
        -1.214377999305725,
        -1.2143781185150146,
        -2.1987149715423584
      ],
      "type": "VEC3"
    },
    {
      "bufferView": 2,
      "byteOffset": 95616,
      "componentType": 5126,
      "count": 4110,
      "max": [
        1.0,
        1.0,
        0.9999992847442627
      ],
      "min": [
        -1.0,
        -1.0,
        -1.0
      ],
      "type": "VEC3"
    },
    {
      "bufferView": 3,
      "byteOffset": 30864,
      "componentType": 5126,
      "count": 4110,
      "max": [
        1.0,
        1.0,
        0.38267818093299866,
        1.0
      ],
      "min": [
        -1.0,
        -1.0,
        -0.9987287521362305,
        1.0
      ],
      "type": "VEC4"
    },
    {
      "bufferView": 1,
      "byteOffset": 15432,
      "componentType": 5126,
      "count": 4110,
      "max": [
        0.9805826544761658,
        0.9913257956504822
      ],
      "min": [
        0.025220844894647598,
        0.28915345668792725
      ],
      "type": "VEC2"
    },
    {
      "bufferView": 1,
      "byteOffset": 48312,
      "componentType": 5126,
      "count": 4110,
      "max": [
        0.7407723665237427,
        0.811385989189148
      ],
      "min": [
        0.2592277228832245,
        -0.1523756980895996
      ],
      "type": "VEC2"
    },
    {
      "bufferView": 0,
      "byteOffset": 19308,
      "componentType": 5125,
      "count": 18624,
      "type": "SCALAR"
    }
  ],
  "asset": {
    "extras": {
      "author": "Mehdi Shahsavan (https://sketchfab.com/ahmagh2e)",
      "license": "CC-BY-4.0 (http://creativecommons.org/licenses/by/4.0/)",
      "source": "https://sketchfab.com/3d-models/pill-bottle-morphine-medicine-bottle-3-mb-78cd0ddf66654467b4aef48e0634f1b5",
      "title": "Pill Bottle_Morphine medicine bottle_3_MB"
    },
    "generator": "Sketchfab-16.59.0",
    "version": "2.0"
  },
  "bufferViews": [
    {
      "buffer": 0,
      "byteLength": 93804,
      "name": "floatBufferViews",
      "target": 34963
    },
    {
      "buffer": 0,
      "byteLength": 81192,
      "byteOffset": 93804,
      "byteStride": 8,
      "name": "floatBufferViews",
      "target": 34962
    },
    {
      "buffer": 0,
      "byteLength": 144936,
      "byteOffset": 174996,
      "byteStride": 12,
      "name": "floatBufferViews",
      "target": 34962
    },
    {
      "buffer": 0,
      "byteLength": 96624,
      "byteOffset": 319932,
      "byteStride": 16,
      "name": "floatBufferViews",
      "target": 34962
    }
  ],
  "buffers": [
    {
      "byteLength": 416556,
      "uri": "scene.bin"
    }
  ],
  "images": [
    {
      "uri": "textures/Scene_-_Root_baseColor.png"
    },
    {
      "uri": "textures/Scene_-_Root_metallicRoughness.png"
    },
    {
      "uri": "textures/Scene_-_Root_normal.png"
    }
  ],
  "materials": [
    {
      "doubleSided": true,
      "name": "Scene_-_Root",
      "normalTexture": {
        "index": 2
      },
      "pbrMetallicRoughness": {
        "baseColorTexture": {
          "index": 0
        },
        "metallicFactor": 0.0,
        "metallicRoughnessTexture": {
          "index": 1
        }
      }
    }
  ],
  "meshes": [
    {
      "name": "Cylinder__0",
      "primitives": [
        {
          "attributes": {
            "NORMAL": 1,
            "POSITION": 0,
            "TANGENT": 2,
            "TEXCOORD_0": 3
          },
          "indices": 4,
          "material": 0,
          "mode": 4
        }
      ]
    },
    {
      "name": "Capsule__0",
      "primitives": [
        {
          "attributes": {
            "NORMAL": 6,
            "POSITION": 5,
            "TANGENT": 7,
            "TEXCOORD_0": 8
          },
          "indices": 9,
          "material": 0,
          "mode": 4
        }
      ]
    },
    {
      "name": "bottle__0",
      "primitives": [
        {
          "attributes": {
            "NORMAL": 11,
            "POSITION": 10,
            "TANGENT": 12,
            "TEXCOORD_0": 13,
            "TEXCOORD_1": 14
          },
          "indices": 15,
          "material": 0,
          "mode": 4
        }
      ]
    }
  ],
  "nodes": [
    {
      "children": [
        1
      ],
      "matrix": [
        1.0,
        0.0,
        0.0,
        0.0,
        0.0,
        2.220446049250313e-16,
        -1.0,
        0.0,
        0.0,
        1.0,
        2.220446049250313e-16,
        0.0,
        0.0,
        0.0,
        0.0,
        1.0
      ],
      "name": "Sketchfab_model"
    },
    {
      "children": [
        2
      ],
      "matrix": [
        0.009999999776482582,
        0.0,
        0.0,
        0.0,
        0.0,
        0.0,
        0.009999999776482582,
        0.0,
        0.0,
        -0.009999999776482582,
        0.0,
        0.0,
        0.0,
        0.0,
        0.0,
        1.0
      ],
      "name": "25e6da611b984086b4213ef0fa51ca81.fbx"
    },
    {
      "children": [
        3,
        5,
        7,
        9
      ],
      "name": "RootNode"
    },
    {
      "children": [
        4
      ],
      "matrix": [
        0.1730358918718614,
        -0.33721710917785674,
        -0.9253881355419675,
        0.0,
        0.061981087225562836,
        0.9414269070287558,
        -0.3314720554565765,
        0.0,
        0.9829633385586904,
        1.6653345369377348e-16,
        0.18380172754779356,
        0.0,
        -38.1666145324707,
        192.16476440429688,
        424.86767578125,
        1.0
      ],
      "name": "CINEMA_4D_Editor"
    },
    {
      "name": "Object_4"
    },
    {
      "children": [
        6
      ],
      "matrix": [
        1.0,
        0.0,
        0.0,
        0.0,
        0.0,
        1.0,
        0.0,
        0.0,
        0.0,
        0.0,
        1.0,
        0.0,
        0.0,
        107.27570343017578,
        0.0,
        1.0
      ],
      "name": "Cylinder"
    },
    {
      "mesh": 0,
      "name": "Cylinder__0"
    },
    {
      "children": [
        8
      ],
      "matrix": [
        1.0,
        0.0,
        0.0,
        0.0,
        0.0,
        1.0,
        0.0,
        0.0,
        0.0,
        0.0,
        1.0,
        0.0,
        73.97550964355469,
        0.0,
        0.0,
        1.0
      ],
      "name": "Capsule"
    },
    {
      "mesh": 1,
      "name": "Capsule__0"
    },
    {
      "children": [
        10
      ],
      "matrix": [
        -21.128014891974534,
        0.13965513369735807,
        -6.144503617898622,
        0.0,
        -6.145720579143865,
        -0.23888180683575197,
        21.12677002406742,
        0.0,
        0.06738160764175834,
        22.00206330173966,
        0.2683799351209246,
        0.0,
        0.2238040715456009,
        51.619285583496094,
        0.0,
        1.0
      ],
      "name": "bottle"
    },
    {
      "mesh": 2,
      "name": "bottle__0"
    }
  ],
  "samplers": [
    {
      "magFilter": 9729,
      "minFilter": 9987,
      "wrapS": 10497,
      "wrapT": 10497
    }
  ],
  "scene": 0,
  "scenes": [
    {
      "name": "Sketchfab_Scene",
      "nodes": [
        0
      ]
    }
  ],
  "textures": [
    {
      "sampler": 0,
      "source": 0
    },
    {
      "sampler": 0,
      "source": 1
    },
    {
      "sampler": 0,
      "source": 2
    }
  ]
}
