{
	"asset":{
		"generator":"Khronos glTF Blender I/O v4.3.47",
		"version":"2.0"
	},
	"scene":0,
	"scenes":[
		{
			"name":"Scene",
			"nodes":[
				0
			]
		}
	],
	"nodes":[
		{
			"mesh":0,
			"name":"mesh",
			"rotation":[
				0.7071068286895752,
				0,
				0,
				0.7071068286895752
			]
		}
	],
	"meshes":[
		{
			"name":"mesh",
			"primitives":[
				{
					"attributes":{
						"POSITION":0,
						"NORMAL":1
					},
					"indices":2
				}
			]
		}
	],
	"accessors":[
		{
			"bufferView":0,
			"componentType":5126,
			"count":383120,
			"max":[
				0.4103795289993286,
				1.0135806798934937,
				-0.05295167863368988
			],
			"min":[
				-1.3439290523529053,
				-3.0069334506988525,
				-0.33336591720581055
			],
			"type":"VEC3"
		},
		{
			"bufferView":1,
			"componentType":5126,
			"count":383120,
			"type":"VEC3"
		},
		{
			"bufferView":2,
			"componentType":5125,
			"count":383166,
			"type":"SCALAR"
		}
	],
	"bufferViews":[
		{
			"buffer":0,
			"byteLength":4597440,
			"byteOffset":0,
			"target":34962
		},
		{
			"buffer":0,
			"byteLength":4597440,
			"byteOffset":4597440,
			"target":34962
		},
		{
			"buffer":0,
			"byteLength":1532664,
			"byteOffset":9194880,
			"target":34963
		}
	],
	"buffers":[
		{
			"byteLength":10727544,
			"uri":"untitled2.bin"
		}
	]
}
